<mxfile host="app.diagrams.net" modified="2022-03-21T05:38:35.174Z" agent="5.0 (Windows NT 10.0; Win64; x64) AppleWebKit/537.36 (KHTML, like Gecko) Chrome/99.0.4844.82 Safari/537.36" etag="S8Rl1Aj_3-LRoYf5oz23" version="17.1.3" type="github">
  <diagram id="dYXV0NQMUeXWBEecZLli" name="Page-1">
    <mxGraphModel dx="1422" dy="785" grid="0" gridSize="10" guides="1" tooltips="1" connect="1" arrows="1" fold="1" page="0" pageScale="1" pageWidth="850" pageHeight="1100" math="0" shadow="0">
      <root>
        <mxCell id="0" />
        <mxCell id="1" parent="0" />
        <mxCell id="RMa7GaQTU-wmoHi6-1Ei-1" value="" style="edgeStyle=none;rounded=0;jumpStyle=none;html=1;shadow=0;labelBackgroundColor=none;startArrow=none;startFill=0;endArrow=classic;endFill=1;jettySize=auto;orthogonalLoop=1;strokeColor=#2F5B7C;strokeWidth=3;fontFamily=Helvetica;fontSize=16;fontColor=#23445D;spacing=5;exitX=1;exitY=0.5;exitDx=0;exitDy=0;" edge="1" parent="1" source="RMa7GaQTU-wmoHi6-1Ei-41" target="RMa7GaQTU-wmoHi6-1Ei-20">
          <mxGeometry relative="1" as="geometry">
            <mxPoint x="576" y="287.5" as="sourcePoint" />
          </mxGeometry>
        </mxCell>
        <mxCell id="RMa7GaQTU-wmoHi6-1Ei-2" value="" style="edgeStyle=none;rounded=0;jumpStyle=none;html=1;shadow=0;labelBackgroundColor=none;startArrow=none;startFill=0;endArrow=classic;endFill=1;jettySize=auto;orthogonalLoop=1;strokeColor=#2F5B7C;strokeWidth=3;fontFamily=Helvetica;fontSize=16;fontColor=#23445D;spacing=5;exitX=0.413;exitY=0.882;exitDx=0;exitDy=0;exitPerimeter=0;" edge="1" parent="1" source="RMa7GaQTU-wmoHi6-1Ei-41" target="RMa7GaQTU-wmoHi6-1Ei-27">
          <mxGeometry relative="1" as="geometry">
            <mxPoint x="653" y="385" as="sourcePoint" />
          </mxGeometry>
        </mxCell>
        <mxCell id="RMa7GaQTU-wmoHi6-1Ei-3" value="" style="edgeStyle=none;rounded=0;jumpStyle=none;html=1;shadow=0;labelBackgroundColor=none;startArrow=none;startFill=0;endArrow=classic;endFill=1;jettySize=auto;orthogonalLoop=1;strokeColor=#2F5B7C;strokeWidth=3;fontFamily=Helvetica;fontSize=16;fontColor=#23445D;spacing=5;" edge="1" parent="1" target="RMa7GaQTU-wmoHi6-1Ei-16">
          <mxGeometry relative="1" as="geometry">
            <mxPoint x="576" y="402.5" as="sourcePoint" />
          </mxGeometry>
        </mxCell>
        <mxCell id="RMa7GaQTU-wmoHi6-1Ei-4" value="" style="edgeStyle=none;rounded=0;jumpStyle=none;html=1;shadow=0;labelBackgroundColor=none;startArrow=none;startFill=0;endArrow=classic;endFill=1;jettySize=auto;orthogonalLoop=1;strokeColor=#2F5B7C;strokeWidth=3;fontFamily=Helvetica;fontSize=16;fontColor=#23445D;spacing=5;" edge="1" parent="1" target="RMa7GaQTU-wmoHi6-1Ei-9">
          <mxGeometry relative="1" as="geometry">
            <mxPoint x="499" y="385" as="sourcePoint" />
          </mxGeometry>
        </mxCell>
        <mxCell id="RMa7GaQTU-wmoHi6-1Ei-6" value="" style="edgeStyle=none;rounded=1;jumpStyle=none;html=1;shadow=0;labelBackgroundColor=none;startArrow=none;startFill=0;jettySize=auto;orthogonalLoop=1;strokeColor=#E85642;strokeWidth=3;fontFamily=Helvetica;fontSize=14;fontColor=#FFFFFF;spacing=5;fontStyle=1;fillColor=#b0e3e6;" edge="1" parent="1" source="RMa7GaQTU-wmoHi6-1Ei-9" target="RMa7GaQTU-wmoHi6-1Ei-12">
          <mxGeometry relative="1" as="geometry" />
        </mxCell>
        <mxCell id="RMa7GaQTU-wmoHi6-1Ei-7" value="" style="edgeStyle=none;rounded=1;jumpStyle=none;html=1;shadow=0;labelBackgroundColor=none;startArrow=none;startFill=0;jettySize=auto;orthogonalLoop=1;strokeColor=#E85642;strokeWidth=3;fontFamily=Helvetica;fontSize=14;fontColor=#FFFFFF;spacing=5;fontStyle=1;fillColor=#b0e3e6;" edge="1" parent="1" source="RMa7GaQTU-wmoHi6-1Ei-9" target="RMa7GaQTU-wmoHi6-1Ei-11">
          <mxGeometry relative="1" as="geometry" />
        </mxCell>
        <mxCell id="RMa7GaQTU-wmoHi6-1Ei-8" value="" style="edgeStyle=none;rounded=1;jumpStyle=none;html=1;shadow=0;labelBackgroundColor=none;startArrow=none;startFill=0;jettySize=auto;orthogonalLoop=1;strokeColor=#E85642;strokeWidth=3;fontFamily=Helvetica;fontSize=14;fontColor=#FFFFFF;spacing=5;fontStyle=1;fillColor=#b0e3e6;" edge="1" parent="1" source="RMa7GaQTU-wmoHi6-1Ei-9" target="RMa7GaQTU-wmoHi6-1Ei-10">
          <mxGeometry relative="1" as="geometry" />
        </mxCell>
        <mxCell id="RMa7GaQTU-wmoHi6-1Ei-9" value="ビジネス翻訳/通訳" style="rounded=1;whiteSpace=wrap;html=1;shadow=0;labelBackgroundColor=none;strokeColor=none;strokeWidth=3;fillColor=#e85642;fontFamily=Helvetica;fontSize=14;fontColor=#FFFFFF;align=center;spacing=5;fontStyle=1;arcSize=7;perimeterSpacing=2;" vertex="1" parent="1">
          <mxGeometry x="221" y="355" width="150" height="60" as="geometry" />
        </mxCell>
        <mxCell id="RMa7GaQTU-wmoHi6-1Ei-10" value="医療" style="rounded=1;whiteSpace=wrap;html=1;shadow=0;labelBackgroundColor=none;strokeColor=none;strokeWidth=3;fillColor=#f08e81;fontFamily=Helvetica;fontSize=14;fontColor=#FFFFFF;align=center;spacing=5;fontStyle=0;arcSize=7;perimeterSpacing=2;" vertex="1" parent="1">
          <mxGeometry x="71" y="474" width="150" height="60" as="geometry" />
        </mxCell>
        <mxCell id="RMa7GaQTU-wmoHi6-1Ei-11" value="システムデザイン" style="rounded=1;whiteSpace=wrap;html=1;shadow=0;labelBackgroundColor=none;strokeColor=none;strokeWidth=3;fillColor=#f08e81;fontFamily=Helvetica;fontSize=14;fontColor=#FFFFFF;align=center;spacing=5;fontStyle=0;arcSize=7;perimeterSpacing=2;" vertex="1" parent="1">
          <mxGeometry x="20" y="355" width="150" height="60" as="geometry" />
        </mxCell>
        <mxCell id="RMa7GaQTU-wmoHi6-1Ei-12" value="自動車業界(技術）" style="rounded=1;whiteSpace=wrap;html=1;shadow=0;labelBackgroundColor=none;strokeColor=none;strokeWidth=3;fillColor=#f08e81;fontFamily=Helvetica;fontSize=14;fontColor=#FFFFFF;align=center;spacing=5;fontStyle=0;arcSize=7;perimeterSpacing=2;" vertex="1" parent="1">
          <mxGeometry x="71" y="224" width="150" height="60" as="geometry" />
        </mxCell>
        <mxCell id="RMa7GaQTU-wmoHi6-1Ei-13" value="" style="edgeStyle=none;rounded=0;jumpStyle=none;html=1;shadow=0;labelBackgroundColor=none;startArrow=none;startFill=0;endArrow=classic;endFill=1;jettySize=auto;orthogonalLoop=1;strokeColor=#1699D3;strokeWidth=3;fontFamily=Helvetica;fontSize=14;fontColor=#FFFFFF;spacing=5;" edge="1" parent="1" source="RMa7GaQTU-wmoHi6-1Ei-16" target="RMa7GaQTU-wmoHi6-1Ei-19">
          <mxGeometry relative="1" as="geometry" />
        </mxCell>
        <mxCell id="RMa7GaQTU-wmoHi6-1Ei-14" value="" style="edgeStyle=none;rounded=0;jumpStyle=none;html=1;shadow=0;labelBackgroundColor=none;startArrow=none;startFill=0;endArrow=classic;endFill=1;jettySize=auto;orthogonalLoop=1;strokeColor=#1699D3;strokeWidth=3;fontFamily=Helvetica;fontSize=14;fontColor=#FFFFFF;spacing=5;" edge="1" parent="1" source="RMa7GaQTU-wmoHi6-1Ei-16" target="RMa7GaQTU-wmoHi6-1Ei-18">
          <mxGeometry relative="1" as="geometry" />
        </mxCell>
        <mxCell id="RMa7GaQTU-wmoHi6-1Ei-15" value="" style="edgeStyle=none;rounded=0;jumpStyle=none;html=1;shadow=0;labelBackgroundColor=none;startArrow=none;startFill=0;endArrow=classic;endFill=1;jettySize=auto;orthogonalLoop=1;strokeColor=#1699D3;strokeWidth=3;fontFamily=Helvetica;fontSize=14;fontColor=#FFFFFF;spacing=5;" edge="1" parent="1" source="RMa7GaQTU-wmoHi6-1Ei-16" target="RMa7GaQTU-wmoHi6-1Ei-17">
          <mxGeometry relative="1" as="geometry" />
        </mxCell>
        <mxCell id="RMa7GaQTU-wmoHi6-1Ei-16" value="通訳・翻訳者" style="rounded=1;whiteSpace=wrap;html=1;shadow=0;labelBackgroundColor=none;strokeColor=none;strokeWidth=3;fillColor=#1699d3;fontFamily=Helvetica;fontSize=14;fontColor=#FFFFFF;align=center;spacing=5;fontStyle=1;arcSize=7;perimeterSpacing=2;" vertex="1" parent="1">
          <mxGeometry x="501" y="540" width="150" height="60" as="geometry" />
        </mxCell>
        <mxCell id="RMa7GaQTU-wmoHi6-1Ei-17" value="フリーランス通訳" style="rounded=1;whiteSpace=wrap;html=1;shadow=0;labelBackgroundColor=none;strokeColor=none;strokeWidth=3;fillColor=#64bbe2;fontFamily=Helvetica;fontSize=14;fontColor=#FFFFFF;align=center;spacing=5;arcSize=7;perimeterSpacing=2;" vertex="1" parent="1">
          <mxGeometry x="701" y="620" width="150" height="60" as="geometry" />
        </mxCell>
        <mxCell id="RMa7GaQTU-wmoHi6-1Ei-18" value="字幕翻訳" style="rounded=1;whiteSpace=wrap;html=1;shadow=0;labelBackgroundColor=none;strokeColor=none;strokeWidth=3;fillColor=#64bbe2;fontFamily=Helvetica;fontSize=14;fontColor=#FFFFFF;align=center;spacing=5;arcSize=7;perimeterSpacing=2;" vertex="1" parent="1">
          <mxGeometry x="501" y="686" width="150" height="60" as="geometry" />
        </mxCell>
        <mxCell id="RMa7GaQTU-wmoHi6-1Ei-19" value="ウェブサイト翻訳" style="rounded=1;whiteSpace=wrap;html=1;shadow=0;labelBackgroundColor=none;strokeColor=none;strokeWidth=3;fillColor=#64bbe2;fontFamily=Helvetica;fontSize=14;fontColor=#FFFFFF;align=center;spacing=5;arcSize=7;perimeterSpacing=2;" vertex="1" parent="1">
          <mxGeometry x="301" y="620" width="150" height="60" as="geometry" />
        </mxCell>
        <mxCell id="RMa7GaQTU-wmoHi6-1Ei-20" value="データアナリスト" style="rounded=1;whiteSpace=wrap;html=1;shadow=0;labelBackgroundColor=none;strokeColor=none;strokeWidth=3;fillColor=#F08705;fontFamily=Helvetica;fontSize=14;fontColor=#FFFFFF;align=center;spacing=5;fontStyle=1;arcSize=7;perimeterSpacing=2;" vertex="1" parent="1">
          <mxGeometry x="501" y="170" width="150" height="60" as="geometry" />
        </mxCell>
        <mxCell id="RMa7GaQTU-wmoHi6-1Ei-21" value="データ&lt;br&gt;ビジュアリゼーション" style="rounded=1;whiteSpace=wrap;html=1;shadow=0;labelBackgroundColor=none;strokeColor=none;strokeWidth=3;fillColor=#f5af58;fontFamily=Helvetica;fontSize=14;fontColor=#FFFFFF;align=center;spacing=5;arcSize=7;perimeterSpacing=2;" vertex="1" parent="1">
          <mxGeometry x="701" y="80" width="150" height="60" as="geometry" />
        </mxCell>
        <mxCell id="RMa7GaQTU-wmoHi6-1Ei-22" value="" style="edgeStyle=none;rounded=0;jumpStyle=none;html=1;shadow=0;labelBackgroundColor=none;startArrow=none;startFill=0;endArrow=classic;endFill=1;jettySize=auto;orthogonalLoop=1;strokeColor=#F08705;strokeWidth=3;fontFamily=Helvetica;fontSize=14;fontColor=#FFFFFF;spacing=5;" edge="1" parent="1" source="RMa7GaQTU-wmoHi6-1Ei-20" target="RMa7GaQTU-wmoHi6-1Ei-21">
          <mxGeometry relative="1" as="geometry" />
        </mxCell>
        <mxCell id="RMa7GaQTU-wmoHi6-1Ei-23" value="Instruments" style="rounded=1;whiteSpace=wrap;html=1;shadow=0;labelBackgroundColor=none;strokeColor=none;strokeWidth=3;fillColor=#f5af58;fontFamily=Helvetica;fontSize=14;fontColor=#FFFFFF;align=center;spacing=5;arcSize=7;perimeterSpacing=2;" vertex="1" parent="1">
          <mxGeometry x="501" y="20" width="150" height="60" as="geometry" />
        </mxCell>
        <mxCell id="RMa7GaQTU-wmoHi6-1Ei-24" value="" style="edgeStyle=none;rounded=0;jumpStyle=none;html=1;shadow=0;labelBackgroundColor=none;startArrow=none;startFill=0;endArrow=classic;endFill=1;jettySize=auto;orthogonalLoop=1;strokeColor=#F08705;strokeWidth=3;fontFamily=Helvetica;fontSize=14;fontColor=#FFFFFF;spacing=5;" edge="1" parent="1" source="RMa7GaQTU-wmoHi6-1Ei-20" target="RMa7GaQTU-wmoHi6-1Ei-23">
          <mxGeometry relative="1" as="geometry" />
        </mxCell>
        <mxCell id="RMa7GaQTU-wmoHi6-1Ei-25" value="Python" style="rounded=1;whiteSpace=wrap;html=1;shadow=0;labelBackgroundColor=none;strokeColor=none;strokeWidth=3;fillColor=#f5af58;fontFamily=Helvetica;fontSize=14;fontColor=#FFFFFF;align=center;spacing=5;arcSize=7;perimeterSpacing=2;" vertex="1" parent="1">
          <mxGeometry x="301" y="80" width="150" height="60" as="geometry" />
        </mxCell>
        <mxCell id="RMa7GaQTU-wmoHi6-1Ei-26" value="" style="edgeStyle=none;rounded=0;jumpStyle=none;html=1;shadow=0;labelBackgroundColor=none;startArrow=none;startFill=0;endArrow=classic;endFill=1;jettySize=auto;orthogonalLoop=1;strokeColor=#F08705;strokeWidth=3;fontFamily=Helvetica;fontSize=14;fontColor=#FFFFFF;spacing=5;" edge="1" parent="1" source="RMa7GaQTU-wmoHi6-1Ei-20" target="RMa7GaQTU-wmoHi6-1Ei-25">
          <mxGeometry relative="1" as="geometry" />
        </mxCell>
        <mxCell id="RMa7GaQTU-wmoHi6-1Ei-27" value="出版翻訳" style="rounded=1;whiteSpace=wrap;html=1;shadow=0;labelBackgroundColor=none;strokeColor=none;strokeWidth=3;fillColor=#12aab5;fontFamily=Helvetica;fontSize=14;fontColor=#FFFFFF;align=center;spacing=5;fontStyle=1;arcSize=7;perimeterSpacing=2;" vertex="1" parent="1">
          <mxGeometry x="801" y="354.9999999999999" width="150" height="60" as="geometry" />
        </mxCell>
        <mxCell id="RMa7GaQTU-wmoHi6-1Ei-28" value="バックギャモン関連" style="rounded=1;whiteSpace=wrap;html=1;shadow=0;labelBackgroundColor=none;strokeColor=none;strokeWidth=3;fillColor=#61c6ce;fontFamily=Helvetica;fontSize=14;fontColor=#FFFFFF;align=center;spacing=5;fontStyle=0;arcSize=7;perimeterSpacing=2;" vertex="1" parent="1">
          <mxGeometry x="881" y="494" width="150" height="60" as="geometry" />
        </mxCell>
        <mxCell id="RMa7GaQTU-wmoHi6-1Ei-29" value="" style="edgeStyle=none;rounded=1;jumpStyle=none;html=1;shadow=0;labelBackgroundColor=none;startArrow=none;startFill=0;jettySize=auto;orthogonalLoop=1;strokeColor=#12AAB5;strokeWidth=3;fontFamily=Helvetica;fontSize=14;fontColor=#FFFFFF;spacing=5;fontStyle=1;fillColor=#b0e3e6;" edge="1" parent="1" source="RMa7GaQTU-wmoHi6-1Ei-27" target="RMa7GaQTU-wmoHi6-1Ei-28">
          <mxGeometry relative="1" as="geometry" />
        </mxCell>
        <mxCell id="RMa7GaQTU-wmoHi6-1Ei-32" value="ビジネス・金融関連" style="rounded=1;whiteSpace=wrap;html=1;shadow=0;labelBackgroundColor=none;strokeColor=none;strokeWidth=3;fillColor=#61c6ce;fontFamily=Helvetica;fontSize=14;fontColor=#FFFFFF;align=center;spacing=5;fontStyle=0;arcSize=7;perimeterSpacing=2;" vertex="1" parent="1">
          <mxGeometry x="1009" y="355" width="150" height="60" as="geometry" />
        </mxCell>
        <mxCell id="RMa7GaQTU-wmoHi6-1Ei-33" value="" style="edgeStyle=none;rounded=1;jumpStyle=none;html=1;shadow=0;labelBackgroundColor=none;startArrow=none;startFill=0;jettySize=auto;orthogonalLoop=1;strokeColor=#12AAB5;strokeWidth=3;fontFamily=Helvetica;fontSize=14;fontColor=#FFFFFF;spacing=5;fontStyle=1;fillColor=#b0e3e6;exitX=1;exitY=0.5;exitDx=0;exitDy=0;" edge="1" parent="1" source="RMa7GaQTU-wmoHi6-1Ei-27" target="RMa7GaQTU-wmoHi6-1Ei-32">
          <mxGeometry relative="1" as="geometry">
            <mxPoint x="951" y="423.63333333333344" as="sourcePoint" />
          </mxGeometry>
        </mxCell>
        <mxCell id="RMa7GaQTU-wmoHi6-1Ei-34" value="自動車関連" style="rounded=1;whiteSpace=wrap;html=1;shadow=0;labelBackgroundColor=none;strokeColor=none;strokeWidth=3;fillColor=#61c6ce;fontFamily=Helvetica;fontSize=14;fontColor=#FFFFFF;align=center;spacing=5;fontStyle=0;arcSize=7;perimeterSpacing=2;" vertex="1" parent="1">
          <mxGeometry x="881" y="214" width="150" height="60" as="geometry" />
        </mxCell>
        <mxCell id="RMa7GaQTU-wmoHi6-1Ei-35" value="" style="edgeStyle=none;rounded=1;jumpStyle=none;html=1;shadow=0;labelBackgroundColor=none;startArrow=none;startFill=0;jettySize=auto;orthogonalLoop=1;strokeColor=#12AAB5;strokeWidth=3;fontFamily=Helvetica;fontSize=14;fontColor=#FFFFFF;spacing=5;fontStyle=1;fillColor=#b0e3e6;" edge="1" parent="1" source="RMa7GaQTU-wmoHi6-1Ei-27" target="RMa7GaQTU-wmoHi6-1Ei-34">
          <mxGeometry relative="1" as="geometry" />
        </mxCell>
        <mxCell id="RMa7GaQTU-wmoHi6-1Ei-37" value="Business" style="rounded=1;whiteSpace=wrap;html=1;shadow=0;labelBackgroundColor=none;strokeColor=none;strokeWidth=3;fillColor=#2F5B7C;fontFamily=Helvetica;fontSize=16;fontColor=#FFFFFF;align=center;fontStyle=1;spacing=5;arcSize=7;perimeterSpacing=2;" vertex="1" parent="1">
          <mxGeometry x="410" y="370" width="150" height="30" as="geometry" />
        </mxCell>
        <mxCell id="RMa7GaQTU-wmoHi6-1Ei-38" value="" style="edgeStyle=none;rounded=0;jumpStyle=none;html=1;shadow=0;labelBackgroundColor=none;startArrow=none;startFill=0;endArrow=none;endFill=1;jettySize=auto;orthogonalLoop=1;strokeColor=#2F5B7C;strokeWidth=3;fontFamily=Helvetica;fontSize=16;fontColor=#23445D;spacing=5;" edge="1" parent="1">
          <mxGeometry relative="1" as="geometry">
            <mxPoint x="576" y="360" as="sourcePoint" />
            <mxPoint x="576" y="402.5" as="targetPoint" />
          </mxGeometry>
        </mxCell>
        <mxCell id="RMa7GaQTU-wmoHi6-1Ei-39" value="" style="edgeStyle=none;rounded=0;jumpStyle=none;html=1;shadow=0;labelBackgroundColor=none;startArrow=none;startFill=0;endArrow=none;endFill=1;jettySize=auto;orthogonalLoop=1;strokeColor=#2F5B7C;strokeWidth=3;fontFamily=Helvetica;fontSize=16;fontColor=#23445D;spacing=5;" edge="1" parent="1">
          <mxGeometry relative="1" as="geometry">
            <mxPoint x="576" y="380" as="sourcePoint" />
            <mxPoint x="576" y="402.5" as="targetPoint" />
          </mxGeometry>
        </mxCell>
        <mxCell id="RMa7GaQTU-wmoHi6-1Ei-40" value="" style="edgeStyle=none;rounded=0;jumpStyle=none;html=1;shadow=0;labelBackgroundColor=none;startArrow=none;startFill=0;endArrow=none;endFill=1;jettySize=auto;orthogonalLoop=1;strokeColor=#2F5B7C;strokeWidth=3;fontFamily=Helvetica;fontSize=16;fontColor=#23445D;spacing=5;" edge="1" parent="1">
          <mxGeometry relative="1" as="geometry">
            <mxPoint x="576" y="380" as="sourcePoint" />
            <mxPoint x="576" y="402.5" as="targetPoint" />
            <Array as="points">
              <mxPoint x="576" y="400" />
            </Array>
          </mxGeometry>
        </mxCell>
        <mxCell id="RMa7GaQTU-wmoHi6-1Ei-41" value="Identity" style="rounded=1;whiteSpace=wrap;html=1;shadow=0;labelBackgroundColor=none;strokeColor=none;strokeWidth=3;fillColor=#2F5B7C;fontFamily=Helvetica;fontSize=16;fontColor=#FFFFFF;align=center;fontStyle=1;spacing=5;arcSize=7;perimeterSpacing=2;rotation=-90;" vertex="1" parent="1">
          <mxGeometry x="520.5" y="361" width="111" height="30" as="geometry" />
        </mxCell>
        <mxCell id="RMa7GaQTU-wmoHi6-1Ei-42" value="自然言語処理（NLP）" style="rounded=1;whiteSpace=wrap;html=1;shadow=0;labelBackgroundColor=none;strokeColor=#d79b00;strokeWidth=3;fillColor=#ffe6cc;fontFamily=Helvetica;fontSize=14;align=center;spacing=5;fontStyle=0;arcSize=15;perimeterSpacing=2;" vertex="1" parent="1">
          <mxGeometry x="502" y="20" width="150" height="60" as="geometry" />
        </mxCell>
      </root>
    </mxGraphModel>
  </diagram>
</mxfile>
